<?xml version="1.0" encoding="UTF-8"?>
<svg width="250px" height="250px" viewBox="0 0 250 250" version="1.1" xmlns="http://www.w3.org/2000/svg" xmlns:xlink="http://www.w3.org/1999/xlink">
    <!-- Generator: Sketch 46.2 (44496) - http://www.bohemiancoding.com/sketch -->
    <title>Artboard</title>
    <desc>Created with Sketch.</desc>
    <defs></defs>
    <g id="Page-1" stroke="none" stroke-width="1" fill="none" fill-rule="evenodd">
        <g id="Artboard">
            <path d="M25,8.92212732 C24.2638877,9.24830433 23.4740498,9.46951384 22.6441792,9.56827217 C23.4915335,9.06085304 24.140162,8.25601512 24.4475808,7.29993513 C23.6527429,7.76983786 22.7753885,8.11104757 21.8405504,8.29601519 C21.0919544,7.49741911 20.0271487,7 18.8461011,7 C16.5802804,7 14.7431205,8.83715986 14.7431205,11.1017387 C14.7431205,11.4229157 14.7793624,11.736609 14.8493625,12.0365769 C11.4400105,11.8653347 8.41683565,10.2319007 6.39346633,7.74983783 C6.03977294,8.35474078 5.83856346,9.05957853 5.83856346,9.81196538 C5.83856346,11.2354644 6.56343393,12.4914796 7.66323965,13.2263174 C6.99085293,13.2038337 6.35846627,13.018866 5.80483792,12.7114146 L5.80483792,12.7626565 C5.80483792,14.7497839 7.21957879,16.408218 9.09546421,16.7856696 C8.75177084,16.8781534 8.38935194,16.9293953 8.01441669,16.9293953 C7.74948162,16.9293953 7.49327205,16.9031534 7.24206249,16.8531534 C7.76444896,18.4841037 9.27919,19.6701187 11.0738661,19.7026351 C9.67036711,20.8024409 7.90069101,21.4560694 5.97856369,21.4560694 C5.64738668,21.4560694 5.321177,21.4360693 5,21.3998275 C6.815918,22.5658751 8.9717712,23.2457455 11.2888338,23.2457455 C18.8361664,23.2457455 22.9616633,16.9943954 22.9616633,11.572916 L22.9479051,11.0417713 C23.7539849,10.4668357 24.451339,9.74448161 25,8.92212732 Z" id="Shape" fill="#3B4044" fill-rule="nonzero"></path>
            <path d="M50.6195813,65.6054949 L10.1425593,89.333333 C9.39825495,89.7776911 8.60443455,90 7.76161933,90 C6.96805954,90 6.17449976,89.8015841 5.38093997,89.4063106 C3.7938204,88.4677308 3,87.0847929 3,85.2548998 L3,37.8015608 C3,35.9729663 3.7938204,34.5887299 5.38093997,33.6496306 C7.01757559,32.759616 8.60443455,32.7840284 10.1425593,33.7233873 L50.6195813,57.4501867 C52.2061796,58.3394223 53,59.7000254 53,61.5283602 C53,63.3569547 52.2061796,64.7149608 50.6195813,65.6054949 Z" id="Path" stroke="#FFFFFF" stroke-width="5"></path>
            <path d="M5,98 L25,98 L25,118 L5,118 L5,98 Z M9.77272618,104.688795 L9.77272618,110.627263 C9.80927013,110.841486 9.7417397,111.060315 9.59082094,111.21672 L8.17948718,112.928654 L8.17948718,113.154404 L12.1814025,113.154404 L12.1814025,112.928654 L10.7700687,111.21672 C10.6180431,111.060574 10.5463311,110.843187 10.5756183,110.627263 L10.5756183,105.491461 L14.0882712,113.154404 L14.4959898,113.154404 L17.5131078,105.491461 L17.5131078,111.59924 C17.5131078,111.762282 17.5131078,111.793636 17.4064737,111.90024 L16.3213149,112.953738 L16.3213149,113.179487 L21.5902943,113.179487 L21.5902943,112.953738 L20.542771,111.925323 C20.4502999,111.854836 20.4044295,111.738986 20.4235917,111.624324 L20.4235917,104.067984 C20.4044295,103.953322 20.4502999,103.837472 20.542771,103.766985 L21.6153846,102.73857 L21.6153846,102.512821 L17.9020087,102.512821 L15.2549738,109.115995 L12.2441284,102.512821 L8.34884723,102.512821 L8.34884723,102.73857 L9.60336613,104.249838 C9.72652308,104.360844 9.78941926,104.523862 9.77272618,104.688795 Z" id="Combined-Shape" fill="#3B4044" fill-rule="nonzero"></path>
            <path d="M97.414486,5 C98.7247885,5 99.8281848,6.10339622 99.8281848,7.41369877 C99.8281848,8.79294405 98.6558067,9.86188843 97.414486,9.82739753 C96.1386743,9.86188843 95.0007872,8.79294405 95.0007872,7.41369877 C94.9662963,6.06890533 96.0697316,5 97.414486,5 Z M98.7592794,24.654421 L96.0007498,24.654421 C95.6214671,24.654421 95.3111272,24.344081 95.3111272,23.9647984 L95.3111272,11.8963045 C95.3111272,11.5170218 95.5869762,11.2066819 95.9662589,11.2066819 L98.7592404,11.2066819 C99.1385231,11.2066819 99.448863,11.5170218 99.448863,11.8963045 L99.448863,23.9992892 C99.4489021,24.344081 99.1385621,24.654421 98.7592794,24.654421 Z M114.965548,15.4133995 L115,15.4133995 L115,24.3095901 C115,24.4475147 114.793094,24.654421 114.655169,24.654421 L111.207017,24.654421 C111.069092,24.654421 110.862186,24.4475147 110.862186,24.3095901 L110.862186,16.8960784 C110.862186,16.2409467 110.689771,15.6547577 110.275997,15.2409841 C109.827733,14.7927196 109.241544,14.5513614 108.586412,14.5513614 C107.3106,14.5858133 106.345128,15.6547577 106.345128,16.9305693 L106.345128,24.378611 C106.345128,24.5165355 106.138222,24.6544601 106.000298,24.6544601 L102.207354,24.6544601 C102.069429,24.6544601 101.862523,24.5165355 101.862523,24.378611 L101.862523,11.5170218 C101.862523,11.3446064 102.069429,11.2066819 102.207354,11.2066819 L105.655506,11.2066819 C105.79343,11.2066819 106.000337,11.4135882 106.000337,11.5515127 L106.000337,12.930758 C106.000337,12.930758 106.103809,12.8272853 106.345168,12.5859272 C107.069281,11.5169828 108.414075,10.861851 109.79332,10.861851 L110.517433,10.861851 C113.069057,10.861851 114.965548,12.8617762 114.965548,15.4133995 Z" id="Combined-Shape" fill="#3B4044" fill-rule="nonzero"></path>
            <path d="M60.5,32.8 L63.6304348,36 L65,34.6 L60.5,30 L56,34.6 L57.3695652,36 L60.5,32.8 Z M60.5,45.2 L57.3695652,42 L56,43.4 L60.5,48 L65,43.4 L63.6304348,42 L60.5,45.2 Z" id="Shape" fill="#373E44" fill-rule="nonzero"></path>
            <path d="M49.0418922,5 L40.9581078,5 C37.6727933,5 35,7.67279333 35,10.9581078 L35,19.0418922 C35,22.3272067 37.6727933,25 40.9581078,25 L49.0418922,25 C52.3272067,25 55,22.3272067 55,19.0418922 L55,10.9581078 C54.9999637,7.67279333 52.3271704,5 49.0418922,5 Z M52.9880007,19.0418922 C52.9880007,21.2212495 51.2212495,22.9880007 49.0418922,22.9880007 L40.9581078,22.9880007 C38.7787505,22.9880007 37.0119993,21.2212495 37.0119993,19.0418922 L37.0119993,10.9581078 C37.0119993,8.7787142 38.7787505,7.01199926 40.9581078,7.01199926 L49.0418922,7.01199926 C51.2212495,7.01199926 52.9880007,8.7787142 52.9880007,10.9581078 L52.9880007,19.0418922 L52.9880007,19.0418922 Z M45,9.82728833 C47.8522378,9.82728833 50.1727117,12.1477259 50.1727117,14.9999637 C50.1727117,17.8522015 47.8522378,20.1726754 45,20.1726754 C42.1477622,20.1726754 39.8272883,17.8521652 39.8272883,14.9999637 C39.8272883,12.1477622 42.1477622,9.82728833 45,9.82728833 Z M45,18.1607124 C46.745591,18.1607124 48.1607124,16.745591 48.1607124,15 C48.1607124,13.2543727 46.7456273,11.8392876 45,11.8392876 C43.254409,11.8392876 41.8392876,13.2543727 41.8392876,15 C41.8392876,16.7456273 43.2543727,18.1607124 45,18.1607124 Z M50.182584,11.1056487 C49.4980538,11.1056487 48.9431324,10.5507272 48.9431324,9.866197 C48.9431324,9.18166676 49.4980538,8.62674536 50.182584,8.62674536 C50.8671143,8.62674536 51.4220357,9.18166676 51.4220357,9.866197 C51.4220357,10.5507272 50.8671143,11.1056487 50.182584,11.1056487 Z" id="Combined-Shape" fill="#3B4044" fill-rule="nonzero"></path>
            <path d="M80.4058342,5.00416133 L77.8122822,5 C74.8985154,5 73.0155114,6.93189975 73.0155114,9.92202699 L73.0155114,12.191411 L70.4078108,12.191411 C70.1824745,12.191411 70,12.3740936 70,12.5994299 L70,15.8875087 C70,16.112845 70.1826826,16.2953195 70.4078108,16.2953195 L73.0155114,16.2953195 L73.0155114,24.5921892 C73.0155114,24.8175255 73.1979859,25 73.4233222,25 L76.8256297,25 C77.0509659,25 77.2334405,24.8173174 77.2334405,24.5921892 L77.2334405,16.2953195 L80.2824506,16.2953195 C80.5077869,16.2953195 80.6902614,16.112845 80.6902614,15.8875087 L80.6915098,12.5994299 C80.6915098,12.4912352 80.64844,12.3876179 80.5720795,12.3110494 C80.495719,12.2344808 80.3916857,12.191411 80.2834909,12.191411 L77.2334405,12.191411 L77.2334405,10.2676259 C77.2334405,9.34297723 77.4537832,8.87357864 78.6582816,8.87357864 L80.4054181,8.87295444 C80.6305463,8.87295444 80.8130208,8.69027184 80.8130208,8.46514362 L80.8130208,5.41197216 C80.8130208,5.18705201 80.6307543,5.00457747 80.4058342,5.00416133 Z" id="Shape" fill="#3B4044" fill-rule="nonzero"></path>
            <path d="M144.172049,7.82964861 C143.687827,7.30782487 142.98684,7.02986295 142.088855,7.00350449 C139.553466,6.9217564 137.760354,8.27055373 136.759516,11.0119255 C136.706983,11.1558833 136.739056,11.3155086 136.843107,11.4285459 C136.946652,11.540938 137.102176,11.5856367 137.249175,11.5453157 C137.536998,11.4661481 137.822425,11.4260575 138.097622,11.4260575 C138.467101,11.4260575 138.958834,11.4939812 139.203618,11.8176096 C139.391491,12.0659874 139.417066,12.4384158 139.279605,12.9244805 C139.163573,13.3345573 138.566453,14.4323042 137.827356,15.5939196 C136.926975,17.009166 136.429574,17.6436123 136.286169,17.6436123 C135.811072,17.6436123 134.094316,10.0312711 134.047129,9.86431883 C133.554705,8.11968382 133.307525,7.2439563 131.706295,7.2439563 C130.485926,7.2439563 127.764001,9.47253629 125.529061,11.4140764 C125.391601,11.5334728 125.275845,11.6340681 125.186217,11.7106551 C124.970188,11.8953486 124.937609,12.2161661 125.112165,12.4409964 L125.528647,12.9775661 C125.704078,13.2036406 126.024066,13.2508277 126.257283,13.0849814 L126.280185,13.0686687 C127.003246,12.554264 127.686308,12.0684297 128.201957,12.0417947 C128.762304,12.0142843 129.248507,12.8896892 129.828163,14.9727908 C130.932131,19.0188602 132.609395,23.8419512 134.330713,23.8419512 C136.129539,23.8419512 138.275496,22.3170775 141.049447,18.7071668 C143.560044,15.4399161 144.904371,12.8486308 144.990728,10.9633099 L144.990728,10.9633099 C145.055564,9.53935406 144.780136,8.48506181 144.172049,7.82964861 Z" id="Shape" fill="#3B4044" fill-rule="nonzero"></path>
            <path d="M150,17 L155,13 L155,16 L168,16 C168,16 171,15.9769077 171,13 C171,10.0230923 168,10 168,10 L166,10 L165,8 L168,8 C168,8 173,8 173,13 C173,18 168,18 168,18 L155,18 L155,21 L150,17 Z" id="Combined-Shape" fill="#D8D8D8" transform="translate(161.500000, 14.500000) scale(1, -1) translate(-161.500000, -14.500000) "></path>
            <polygon id="Combined-Shape" fill="#3B4044" transform="translate(195.000000, 15.000000) rotate(90.000000) translate(-195.000000, -15.000000) " points="180 15 187 11 187 14 210 14 210 16 187 16 187 19"></polygon>
            <path d="M217,17 C215.895431,17 215,16.1045695 215,15 C215,13.8954305 215.895431,13 217,13 C218.104569,13 219,13.8954305 219,15 C219,16.1045695 218.104569,17 217,17 Z M225,17 C223.895431,17 223,16.1045695 223,15 C223,13.8954305 223.895431,13 225,13 C226.104569,13 227,13.8954305 227,15 C227,16.1045695 226.104569,17 225,17 Z M233,17 C231.895431,17 231,16.1045695 231,15 C231,13.8954305 231.895431,13 233,13 C234.104569,13 235,13.8954305 235,15 C235,16.1045695 234.104569,17 233,17 Z" id="Combined-Shape" fill="#D8D8D8"></path>
            <polygon id="Rectangle-5" fill="#D8D8D8" transform="translate(105.000000, 45.000000) rotate(45.000000) translate(-105.000000, -45.000000) " points="104 35 106 35 106 44 115 44 115 46 106 46 106 55 104 55 104 46 95 46 95 44 104 44"></polygon>
            <polygon id="Rectangle-5" fill="#373E44" transform="translate(135.142136, 45.142136) rotate(45.000000) translate(-135.142136, -45.142136) " points="134.142136 35.1421356 136.142136 35.1421356 136.142136 44.1421356 145.142136 44.1421356 145.142136 46.1421356 136.142136 46.1421356 136.142136 55.1421356 134.142136 55.1421356 134.142136 46.1421356 125.142136 46.1421356 125.142136 44.1421356 134.142136 44.1421356"></polygon>
            <polygon id="Combined-Shape" fill="#373E44" transform="translate(230.000000, 53.000000) scale(-1, -1) translate(-230.000000, -53.000000) " points="221 53 226 49 226 52 239 52 239 54 226 54 226 57"></polygon>
            <polygon id="Combined-Shape-Copy" fill="#373E44" transform="translate(190.000000, 53.000000) scale(1, -1) translate(-190.000000, -53.000000) " points="181 53 186 49 186 52 199 52 199 54 186 54 186 57"></polygon>
        </g>
    </g>
</svg>